<svg width="1658" height="1658" xmlns="http://www.w3.org/2000/svg" xmlns:xlink="http://www.w3.org/1999/xlink" overflow="hidden"><defs><clipPath id="clip0"><rect x="408" y="407" width="1658" height="1658"/></clipPath></defs><g clip-path="url(#clip0)" transform="translate(-408 -407)"><path d="M725.372 1236.77C725.459 1217.13 726.671 1197.51 729 1178L422 1178 422 1294 728.769 1294C726.571 1275 725.436 1255.9 725.372 1236.77Z" stroke="#FFFFFF" stroke-width="27.5" stroke-miterlimit="8" fill-rule="evenodd"/><path d="M920 836.954 701.284 619 619 701.02 837.613 919C861.897 888.652 889.533 861.13 920 836.954Z" stroke="#FFFFFF" stroke-width="27.5" stroke-miterlimit="8" fill-rule="evenodd"/><path d="M1237 725.471C1256.39 725.55 1275.75 726.73 1295 729L1295 421 1179 421 1179 729C1198.25 726.728 1217.62 725.55 1237 725.471Z" stroke="#FFFFFF" stroke-width="27.5" stroke-miterlimit="8" fill-rule="evenodd"/><path d="M1636.11 919 1854 700.945 1771.99 619 1554 837.133C1584.37 861.236 1611.91 888.701 1636.11 919Z" stroke="#FFFFFF" stroke-width="27.5" stroke-miterlimit="8" fill-rule="evenodd"/><path d="M836.879 1554 619 1771.05 701.251 1853 919 1636.06C888.615 1611.87 861.065 1584.35 836.879 1554Z" stroke="#FFFFFF" stroke-width="27.5" stroke-miterlimit="8" fill-rule="evenodd"/><path d="M1237 1748.52C1217.62 1748.44 1198.25 1747.27 1179 1745L1179 2051 1295 2051 1295 1745C1275.75 1747.27 1256.39 1748.44 1237 1748.52Z" stroke="#FFFFFF" stroke-width="27.5" stroke-miterlimit="8" fill-rule="evenodd"/><path d="M1745 1178C1749.79 1216.51 1749.87 1255.47 1745.23 1294L2052 1294 2052 1178Z" stroke="#FFFFFF" stroke-width="27.5" stroke-miterlimit="8" fill-rule="evenodd"/><path d="M1555 1636.06 1772.02 1853 1854 1771.05 1636.92 1554C1612.79 1584.35 1585.31 1611.88 1555 1636.06Z" stroke="#FFFFFF" stroke-width="27.5" stroke-miterlimit="8" fill-rule="evenodd"/><path d="M863 1081.08 1082.08 862 1391.92 862 1611 1081.08 1611 1390.92 1391.92 1610 1082.08 1610 863 1390.92Z" stroke="#FFFFFF" stroke-width="27.5" stroke-miterlimit="8" fill-rule="evenodd"/></g></svg>